<svg xmlns="http://www.w3.org/2000/svg" width="1200" height="630" viewBox="0 0 1200 630">
  <defs>
    <pattern id="dots" width="12" height="12" patternUnits="userSpaceOnUse">
      <circle cx="2" cy="2" r="1.7" fill="#deded7"/>
    </pattern>
    <pattern id="quiet-dots" width="16" height="16" patternUnits="userSpaceOnUse">
      <circle cx="2" cy="2" r="1.25" fill="#555650"/>
    </pattern>
    <clipPath id="cutout">
      <path d="M828 76h262l38 50-22 92 38 82-46 72 24 102-54 80H820l-42-64 27-94-36-86 42-74-21-94z"/>
    </clipPath>
  </defs>

  <rect width="1200" height="630" fill="#0a0a09"/>
  <rect x="1" y="1" width="1198" height="628" fill="none" stroke="#30312d" stroke-width="2"/>

  <g opacity="0.45">
    <path d="M0 118h1200M0 512h1200" stroke="#282925"/>
    <path d="M760 0v630" stroke="#282925"/>
  </g>

  <g transform="translate(72 62)">
    <rect width="46" height="46" rx="11" fill="#deded7"/>
    <path d="M13 10v26h6.5v-8.7l7.2 8.7h8L24 23.5 33.2 10h-7.5l-6.2 9.5V10z" fill="#10110f"/>
    <text x="62" y="34" fill="#eeeeea" font-family="Arial, Helvetica, sans-serif" font-size="31" font-weight="700" letter-spacing="-1">klack</text>
  </g>

  <text x="72" y="210" fill="#8f908a" font-family="Menlo, Monaco, monospace" font-size="18" letter-spacing="2.6">AN OPEN PLUGIN LAYER FOR SLACK</text>
  <text x="67" y="305" fill="#f0f0ec" font-family="Arial, Helvetica, sans-serif" font-size="82" font-weight="700" letter-spacing="-4.5">Your Slack.</text>
  <text x="67" y="392" fill="#deded7" font-family="Arial, Helvetica, sans-serif" font-size="82" font-weight="700" letter-spacing="-4.5">Your rules.</text>

  <text x="72" y="451" fill="#aaa9a3" font-family="Arial, Helvetica, sans-serif" font-size="23">Remove distractions. Browse in tabs.</text>
  <text x="72" y="483" fill="#aaa9a3" font-family="Arial, Helvetica, sans-serif" font-size="23">Change the whole interface.</text>

  <g clip-path="url(#cutout)">
    <rect x="756" y="58" width="410" height="520" fill="#171815"/>
    <rect x="756" y="58" width="410" height="520" fill="url(#quiet-dots)"/>
    <circle cx="973" cy="301" r="162" fill="#deded7"/>
    <circle cx="973" cy="301" r="162" fill="url(#dots)"/>
    <path d="M793 363h360v215H793z" fill="#0a0a09"/>
    <path d="M793 363h360v215H793z" fill="url(#quiet-dots)"/>
    <path d="M876 162h194v194H876z" fill="none" stroke="#0a0a09" stroke-width="3"/>
    <path d="M973 162v194M876 259h194" stroke="#0a0a09" stroke-width="3"/>
  </g>
  <path d="M828 76h262l38 50-22 92 38 82-46 72 24 102-54 80H820l-42-64 27-94-36-86 42-74-21-94z" fill="none" stroke="#5b5c56" stroke-width="2"/>

  <g transform="translate(72 560)" fill="#8f908a" font-family="Menlo, Monaco, monospace" font-size="15" letter-spacing="1.4">
    <text>PLUGINS · THEMES · LOCAL-FIRST</text>
    <text x="958">KLACK.SH</text>
  </g>
</svg>
